<?xml version="1.0" encoding="utf-8"?>
<!-- Generator: Adobe Illustrator 16.0.0, SVG Export Plug-In . SVG Version: 6.00 Build 0)  -->
<!DOCTYPE svg PUBLIC "-//W3C//DTD SVG 1.1//EN" "http://www.w3.org/Graphics/SVG/1.1/DTD/svg11.dtd">
<svg version="1.1" id="Слой_1" xmlns="http://www.w3.org/2000/svg" xmlns:xlink="http://www.w3.org/1999/xlink" x="0px" y="0px"
	 width="42.125px" height="41.875px" viewBox="-5.25 -5 42.125 41.875" enable-background="new -5.25 -5 42.125 41.875"
	 xml:space="preserve">
<g id="Cancel">
	<path fill="#FFFFFF" d="M16-4C4.954-4-4,4.954-4,16c0,11.045,8.954,20,20,20c11.045,0,20-8.954,20-20S27.045-4,16-4z M16,33.5
		C6.335,33.5-1.5,25.666-1.5,16C-1.5,6.335,6.335-1.5,16-1.5c9.666,0,17.5,7.835,17.5,17.5C33.5,25.666,25.666,33.5,16,33.5z"/>
	<path fill="#FFFFFF" d="M24.41,22.59l-6.584-6.587l6.548-6.494c0.493-0.489,0.493-1.28,0-1.768c-0.493-0.487-1.293-0.487-1.784,0
		l-6.54,6.485L9.414,7.589c-0.493-0.495-1.292-0.495-1.785,0c-0.492,0.494-0.492,1.296,0,1.79l6.626,6.627l-6.664,6.609
		c-0.493,0.489-0.493,1.28,0,1.768c0.493,0.489,1.292,0.489,1.787,0l6.654-6.601l6.595,6.596c0.492,0.494,1.293,0.494,1.786,0
		C24.904,23.886,24.904,23.084,24.41,22.59z"/>
</g>
</svg>
