<?xml version="1.0" encoding="utf-8"?>
<!-- Generator: Adobe Illustrator 16.0.0, SVG Export Plug-In . SVG Version: 6.00 Build 0)  -->
<!DOCTYPE svg PUBLIC "-//W3C//DTD SVG 1.1//EN" "http://www.w3.org/Graphics/SVG/1.1/DTD/svg11.dtd">
<svg version="1.1" id="Layer_1" xmlns="http://www.w3.org/2000/svg" xmlns:xlink="http://www.w3.org/1999/xlink" x="0px" y="0px"
	 width="51.106px" height="36.32px" viewBox="-9.384 -2.105 51.106 36.32" enable-background="new -9.384 -2.105 51.106 36.32"
	 xml:space="preserve">
<path fill="#FFFFFF" d="M-5.428,5.286h42.857c1.971,0,3.571-1.6,3.571-3.571c0-1.972-1.601-3.572-3.571-3.572H-5.428
	C-7.4-1.857-9-0.257-9,1.714C-9,3.686-7.4,5.286-5.428,5.286z M37.429,12.428H-5.428C-7.4,12.428-9,14.029-9,16
	c0,1.971,1.6,3.571,3.572,3.571h42.857C39.399,19.571,41,17.971,41,16C41,14.029,39.399,12.428,37.429,12.428z M37.429,26.715
	H-5.428C-7.4,26.715-9,28.315-9,30.285c0,1.971,1.6,3.571,3.572,3.571h42.857c1.971,0,3.571-1.601,3.571-3.571
	C41,28.315,39.399,26.715,37.429,26.715z"/>
</svg>
